<svg id="Слой_1" data-name="Слой 1" xmlns="http://www.w3.org/2000/svg" viewBox="0 0 105.26 125"><defs><style>.cls-1{fill:#dd738c;}.cls-2{fill:#15173f;}.cls-3{fill:#2896e0;}.cls-4{opacity:0.3;}</style></defs><title>beach shoes</title><path class="cls-1" d="M37.77,106.67c-11.35,3.8-19.86-4.13-21.92-27.55s-12.33-31.69-13-43.4c-.33-5.64.14-13,2.4-19.27C.61,23.29-.34,33.79.09,41.23c.68,11.71,11,20,13,43.4S23.68,116,35,112.18c6.34-2.13,9.21-5.79,10.07-10A16.61,16.61,0,0,1,37.77,106.67Z"/><path class="cls-2" d="M32.59,107.59a13.33,13.33,0,0,1-7.45-2.21c-6.21-4.07-10-13.52-11.29-28.08C12.7,64.14,9,56.09,5.69,49c-1.15-2.48-2.23-4.83-3.08-7.16a27.64,27.64,0,0,1-1.77-8C.58,29.38.33,14.15,8.05,5.57A16.36,16.36,0,0,1,19.87,0c6.7-.31,11.73,1.32,15.35,5,5.37,5.42,7.47,15.24,6.61,30.89L41.54,41c-1.15,20.4-1.39,24.64,2.79,32.46C47.86,80,52.19,89.68,49.09,97.5c-1.67,4.2-5.26,7.25-10.69,9.07h0A18.3,18.3,0,0,1,32.59,107.59ZM21.41,4Q20.75,4,20,4a12.34,12.34,0,0,0-9,4.22c-5.31,5.9-6.68,17-6.19,25.35a23.81,23.81,0,0,0,1.54,6.86c.79,2.18,1.84,4.45,3,6.85,3.25,7,7.3,15.78,8.52,29.63C19,90,22.27,98.72,27.34,102c2.7,1.77,6,2,9.8.74h0c4.31-1.45,7-3.66,8.24-6.76,2.77-7-2.76-17.32-4.57-20.71-4.71-8.81-4.43-13.75-3.26-34.57l.28-5.06c.79-14.25-1-23.36-5.45-27.86C29.83,5.26,26.24,4,21.41,4Z"/><path class="cls-3" d="M40.51,71.54a2,2,0,0,1-2-2.43c.07-.33,7.1-32.65-2.84-44.46-2.49-3-5.83-4.3-10.18-4.09-5.77.28-9.77,2.26-12.23,6.05C6,37.89,14.88,61,15,61.24a2,2,0,0,1-3.72,1.46c-.4-1-9.72-25.25-1.3-38.25,3.17-4.89,8.35-7.54,15.4-7.88,5.62-.27,10.13,1.58,13.43,5.51C50,35.39,42.77,68.57,42.46,70A2,2,0,0,1,40.51,71.54Z"/><path class="cls-3" d="M25.44,20.57a2,2,0,0,1-2-2V11a2,2,0,0,1,4,0v7.58A2,2,0,0,1,25.44,20.57Z"/><g class="cls-4"><path class="cls-2" d="M26.78,90.24a2,2,0,0,1-.59-3.91L37.94,82.7a2,2,0,1,1,1.18,3.82L27.37,90.15A2,2,0,0,1,26.78,90.24Z"/></g><path class="cls-1" d="M68,115.87c11.35,3.8,19.1-1.42,21.16-24.84s12.33-31.69,13-43.4c.33-5.64-.14-13-2.4-19.27,4.62,6.84,5.57,17.34,5.14,24.79-.68,11.71-11,20-13,43.4S81.32,127.9,70,124.09c-6.34-2.13-9.12-9-10-13.23A19.83,19.83,0,0,0,68,115.87Z"/><path class="cls-2" d="M73.41,118.5a18.3,18.3,0,0,1-5.81-1c-5.42-1.82-9-4.87-10.69-9.07-3.1-7.81,1.23-17.48,4.77-24.08,4.18-7.81,3.94-12.05,2.79-32.44l-.29-5.08c-.87-15.65,1.23-25.47,6.61-30.89,3.62-3.65,8.64-5.27,15.35-5a16.37,16.37,0,0,1,11.82,5.54c7.73,8.57,7.47,23.8,7.21,28.27a27.66,27.66,0,0,1-1.77,8c-.85,2.33-1.94,4.68-3.08,7.16C97,67,93.3,75,92.14,88.2c-1.28,14.57-5.08,24-11.29,28.09A13.35,13.35,0,0,1,73.41,118.5ZM84.59,14.91c-4.82,0-8.42,1.25-11,3.82-4.46,4.5-6.24,13.61-5.45,27.86l.28,5.07c1.18,20.81,1.46,25.75-3.26,34.56-1.82,3.39-7.35,13.72-4.57,20.71,1.23,3.1,3.93,5.31,8.24,6.76h0c3.8,1.27,7.1,1,9.79-.74,5.06-3.32,8.35-12,9.5-25.09,1.22-13.85,5.26-22.6,8.52-29.63,1.11-2.4,2.16-4.67,3-6.85a23.82,23.82,0,0,0,1.54-6.86c.49-8.39-.88-19.46-6.19-25.35a12.33,12.33,0,0,0-9-4.22Q85.25,14.91,84.59,14.91Z"/><path class="cls-3" d="M65.49,82.45a2,2,0,0,1-2-1.57C63.23,79.48,56,46.3,67.22,33c3.3-3.92,7.82-5.78,13.43-5.51,7,.34,12.23,3,15.4,7.88,8.42,13-.9,37.22-1.3,38.25A2,2,0,0,1,91,72.14c.09-.23,9-23.34,1.67-34.62-2.46-3.8-6.46-5.78-12.23-6.05-4.35-.22-7.69,1.13-10.18,4.09-4,4.8-5.83,14-5.18,26.46a123.42,123.42,0,0,0,2.34,18,2,2,0,0,1-1.52,2.39A2,2,0,0,1,65.49,82.45Z"/><path class="cls-3" d="M80.56,31.48a2,2,0,0,1-2-2V21.9a2,2,0,1,1,4,0v7.58A2,2,0,0,1,80.56,31.48Z"/><g class="cls-4"><path class="cls-2" d="M79.22,101.15a2,2,0,0,1-.59-.09L66.88,97.42a2,2,0,1,1,1.18-3.82l11.75,3.64a2,2,0,0,1-.59,3.91Z"/></g></svg>